<svg viewBox="0,0,954,720" width="954" height="720" style="background: rgb(255, 255, 255) none repeat scroll 0% 0%; width: 100%; height: auto;" xmlns="http://www.w3.org/2000/svg" xmlns:xlink="http://www.w3.org/1999/xlink"><g><rect x="1" y="104.5627604236432" height="567.887323943662" width="13" fill="rgb(185, 185, 185)"><title>Facturé aux clients
72 000</title></rect><rect x="157.5" y="97.04418585638363" height="47.323943661971825" width="13" fill="rgb(185, 185, 185)"><title>Dédié Codeurs en Liberté
6 000</title></rect><rect x="940" y="5" height="23.66197183098592" width="13" fill="rgb(185, 185, 185)"><title>Frais administratifs
3 000</title></rect><rect x="940" y="38.66197183098592" height="23.661971830985934" width="13" fill="rgb(185, 185, 185)"><title>Réserve financière
3 000</title></rect><rect x="157.5" y="156.89941748360715" height="520.5633802816901" width="13" fill="rgb(185, 185, 185)"><title>Dédié Salaire
66 000</title></rect><rect x="314" y="151.8757932122304" height="449.5774647887322" width="13" fill="rgb(185, 185, 185)"><title>Super Brut
57 000</title></rect><rect x="470.5" y="146.0014002912221" height="118.30985915492963" width="13" fill="rgb(185, 185, 185)"><title>Cotisations Patronales
15 000</title></rect><rect x="470.5" y="275.3168038997203" height="331.26760563380265" width="13" fill="rgb(185, 185, 185)"><title>Salaire Brut
42 000</title></rect><rect x="627" y="269.74226059291624" height="70.98591549295776" width="13" fill="rgb(185, 185, 185)"><title>Cotisations Salariale
9 000</title></rect><rect x="940" y="72.32394366197185" height="7.887323943661968" width="13" fill="rgb(185, 185, 185)"><title>Accident du travail
1 000</title></rect><rect x="940" y="90.21126760563382" height="23.661971830985863" width="13" fill="rgb(185, 185, 185)"><title>Assurance maladie
3 000</title></rect><rect x="940" y="123.87323943661968" height="11.830985915492988" width="13" fill="rgb(185, 185, 185)"><title>Allocations famille
1 500</title></rect><rect x="940" y="145.70422535211267" height="11.830985915492931" width="13" fill="rgb(185, 185, 185)"><title>Assurance chômage
1 500</title></rect><rect x="940" y="167.5352112676056" height="94.64788732394359" width="13" fill="rgb(185, 185, 185)"><title>Cotisation retraite
12 000</title></rect><rect x="940" y="272.1830985915492" height="31.549295774647817" width="13" fill="rgb(185, 185, 185)"><title>CSG/CRDS
4 000</title></rect><rect x="627" y="351.456635787751" height="260.28169014084494" width="13" fill="rgb(185, 185, 185)"><title>Net avant impôts
33 000</title></rect><rect x="940" y="313.732394366197" height="23.661971830985976" width="13" fill="rgb(185, 185, 185)"><title>État (impôts sur les revenus)
3 000</title></rect><rect x="783.5" y="380.19082630464857" height="236.6197183098592" width="13" fill="rgb(185, 185, 185)"><title>Sur mon compte en banque
30 000</title></rect><rect x="940" y="347.394366197183" height="94.64788732394368" width="13" fill="rgb(185, 185, 185)"><title>Loyer
12 000</title></rect><rect x="940" y="452.04225352112667" height="70.9859154929577" width="13" fill="rgb(185, 185, 185)"><title>Dépenses courantes
9 000</title></rect><rect x="940" y="533.0281690140844" height="15.774647887323908" width="13" fill="rgb(185, 185, 185)"><title>Vacances
2 000</title></rect><rect x="940" y="558.8028169014083" height="15.774647887323908" width="13" fill="rgb(185, 185, 185)"><title>Factures
2 000</title></rect><rect x="940" y="584.5774647887322" height="7.887323943662068" width="13" fill="rgb(185, 185, 185)"><title>Équipements
1 000</title></rect><rect x="940" y="602.4647887323943" height="7.887323943662068" width="13" fill="rgb(185, 185, 185)"><title>Dons et cotisations
1 000</title></rect><rect x="940" y="620.3521126760563" height="94.64788732394368" width="13" fill="rgb(185, 185, 185)"><title>Épargne
12 000</title></rect><rect x="314" y="613.0715289302559" height="70.9859154929577" width="13" fill="rgb(185, 185, 185)"><title>Abondement
9 000</title></rect></g><g fill="none"><g stroke="rgb(221, 221, 221)" style="mix-blend-mode: multiply;"><path d="M15,128.22473225462912C85.75,128.22473225462912,85.75,120.70615768736954,156.5,120.70615768736954" stroke-width="47.323943661971825"/><title>Facturé aux clients → Dédié Codeurs en Liberté
6 000</title></g><g stroke="rgb(221, 221, 221)" style="mix-blend-mode: multiply;"><path d="M171.5,108.8751717718766C555.25,108.8751717718766,555.25,16.830985915492956,939,16.830985915492956" stroke-width="23.661971830985912"/><title>Dédié Codeurs en Liberté → Frais administratifs
3 000</title></g><g stroke="rgb(221, 221, 221)" style="mix-blend-mode: multiply;"><path d="M171.5,132.5371436028625C555.25,132.5371436028625,555.25,50.49295774647888,939,50.49295774647888" stroke-width="23.661971830985912"/><title>Dédié Codeurs en Liberté → Réserve financière
3 000</title></g><g stroke="rgb(221, 221, 221)" style="mix-blend-mode: multiply;"><path d="M15,412.16839422646007C85.75,412.16839422646007,85.75,417.18110762445224,156.5,417.18110762445224" stroke-width="520.5633802816901"/><title>Facturé aux clients → Dédié Salaire
66 000</title></g><g stroke="rgb(221, 221, 221)" style="mix-blend-mode: multiply;"><path d="M171.5,381.68814987797333C242.25,381.68814987797333,242.25,376.6645256065966,313,376.6645256065966" stroke-width="449.57746478873236"/><title>Dédié Salaire → Super Brut
57 000</title></g><g stroke="rgb(221, 221, 221)" style="mix-blend-mode: multiply;"><path d="M328,211.03072278969518C398.75,211.03072278969518,398.75,205.1563298686869,469.5,205.1563298686869" stroke-width="118.30985915492957"/><title>Super Brut → Cotisations Patronales
15 000</title></g><g stroke="rgb(221, 221, 221)" style="mix-blend-mode: multiply;"><path d="M328,435.8194551840613C398.75,435.8194551840613,398.75,440.9506067166217,469.5,440.9506067166217" stroke-width="331.2676056338028"/><title>Super Brut → Salaire Brut
42 000</title></g><g stroke="rgb(221, 221, 221)" style="mix-blend-mode: multiply;"><path d="M484.5,310.80976164619915C555.25,310.80976164619915,555.25,305.2352183393951,626,305.2352183393951" stroke-width="70.98591549295774"/><title>Salaire Brut → Cotisations Salariale
9 000</title></g><g stroke="rgb(221, 221, 221)" style="mix-blend-mode: multiply;"><path d="M484.5,149.94506226305307C711.75,149.94506226305307,711.75,76.26760563380284,939,76.26760563380284" stroke-width="7.887323943661971"/><title>Cotisations Patronales → Accident du travail
1 000</title></g><g stroke="rgb(221, 221, 221)" style="mix-blend-mode: multiply;"><path d="M484.5,165.71971015037704C711.75,165.71971015037704,711.75,102.04225352112678,939,102.04225352112678" stroke-width="23.661971830985912"/><title>Cotisations Patronales → Assurance maladie
3 000</title></g><g stroke="rgb(221, 221, 221)" style="mix-blend-mode: multiply;"><path d="M484.5,183.46618902361647C711.75,183.46618902361647,711.75,129.78873239436615,939,129.78873239436615" stroke-width="11.830985915492956"/><title>Cotisations Patronales → Allocations famille
1 500</title></g><g stroke="rgb(221, 221, 221)" style="mix-blend-mode: multiply;"><path d="M484.5,195.29717493910942C711.75,195.29717493910942,711.75,151.61971830985914,939,151.61971830985914" stroke-width="11.830985915492956"/><title>Cotisations Patronales → Assurance chômage
1 500</title></g><g stroke="rgb(221, 221, 221)" style="mix-blend-mode: multiply;"><path d="M484.5,228.81830169967282C711.75,228.81830169967282,711.75,195.1408450704225,939,195.1408450704225" stroke-width="55.2112676056338"/><title>Cotisations Patronales → Cotisation retraite
7 000</title></g><g stroke="rgb(221, 221, 221)" style="mix-blend-mode: multiply;"><path d="M641,289.4605704520712C790,289.4605704520712,790,242.4647887323943,939,242.4647887323943" stroke-width="39.436619718309856"/><title>Cotisations Salariale → Cotisation retraite
5 000</title></g><g stroke="rgb(221, 221, 221)" style="mix-blend-mode: multiply;"><path d="M641,324.95352819855003C790,324.95352819855003,790,287.95774647887316,939,287.95774647887316" stroke-width="31.549295774647884"/><title>Cotisations Salariale → CSG/CRDS
4 000</title></g><g stroke="rgb(221, 221, 221)" style="mix-blend-mode: multiply;"><path d="M484.5,476.4435644631006C555.25,476.4435644631006,555.25,481.5974808581735,626,481.5974808581735" stroke-width="260.28169014084506"/><title>Salaire Brut → Net avant impôts
33 000</title></g><g stroke="rgb(221, 221, 221)" style="mix-blend-mode: multiply;"><path d="M641,363.28762170324393C790,363.28762170324393,790,325.56338028168994,939,325.56338028168994" stroke-width="23.661971830985912"/><title>Net avant impôts → État (impôts sur les revenus)
3 000</title></g><g stroke="rgb(221, 221, 221)" style="mix-blend-mode: multiply;"><path d="M641,493.4284667736665C711.75,493.4284667736665,711.75,498.5006854595781,782.5,498.5006854595781" stroke-width="236.61971830985914"/><title>Net avant impôts → Sur mon compte en banque
30 000</title></g><g stroke="rgb(221, 221, 221)" style="mix-blend-mode: multiply;"><path d="M797.5,427.5147699666204C868.25,427.5147699666204,868.25,394.71830985915483,939,394.71830985915483" stroke-width="94.64788732394365"/><title>Sur mon compte en banque → Loyer
12 000</title></g><g stroke="rgb(221, 221, 221)" style="mix-blend-mode: multiply;"><path d="M797.5,510.3316713750711C868.25,510.3316713750711,868.25,487.5352112676055,939,487.5352112676055" stroke-width="70.98591549295774"/><title>Sur mon compte en banque → Dépenses courantes
9 000</title></g><g stroke="rgb(221, 221, 221)" style="mix-blend-mode: multiply;"><path d="M797.5,553.7119530652119C868.25,553.7119530652119,868.25,540.9154929577463,939,540.9154929577463" stroke-width="15.774647887323942"/><title>Sur mon compte en banque → Vacances
2 000</title></g><g stroke="rgb(221, 221, 221)" style="mix-blend-mode: multiply;"><path d="M797.5,569.4866009525358C868.25,569.4866009525358,868.25,566.6901408450702,939,566.6901408450702" stroke-width="15.774647887323942"/><title>Sur mon compte en banque → Factures
2 000</title></g><g stroke="rgb(221, 221, 221)" style="mix-blend-mode: multiply;"><path d="M797.5,581.3175868680288C868.25,581.3175868680288,868.25,588.5211267605632,939,588.5211267605632" stroke-width="7.887323943661971"/><title>Sur mon compte en banque → Équipements
1 000</title></g><g stroke="rgb(221, 221, 221)" style="mix-blend-mode: multiply;"><path d="M797.5,612.8668826426766C868.25,612.8668826426766,868.25,606.4084507042253,939,606.4084507042253" stroke-width="7.887323943661971"/><title>Sur mon compte en banque → Dons et cotisations
1 000</title></g><g stroke="rgb(221, 221, 221)" style="mix-blend-mode: multiply;"><path d="M797.5,597.0922347553527C868.25,597.0922347553527,868.25,632.1830985915493,939,632.1830985915493" stroke-width="23.661971830985912"/><title>Sur mon compte en banque → Épargne
3 000</title></g><g stroke="rgb(221, 221, 221)" style="mix-blend-mode: multiply;"><path d="M171.5,641.9698400188183C242.25,641.9698400188183,242.25,648.5644866767348,313,648.5644866767348" stroke-width="70.98591549295774"/><title>Dédié Salaire → Abondement
9 000</title></g><g stroke="rgb(221, 221, 221)" style="mix-blend-mode: multiply;"><path d="M328,648.5644866767348C633.5,648.5644866767348,633.5,679.507042253521,939,679.507042253521" stroke-width="70.98591549295774"/><title>Abondement → Épargne
9 000</title></g></g><g style="font: 10px sans-serif;"><text x="21" y="388.5064223954742" dy="0.35em" text-anchor="start">Facturé aux clients<tspan fill-opacity="0.7"> 72 000</tspan></text><text x="177.5" y="120.70615768736954" dy="0.35em" text-anchor="start">Dédié Codeurs en Liberté<tspan fill-opacity="0.7"> 6 000</tspan></text><text x="933" y="16.83098591549296" dy="0.35em" text-anchor="end">Frais administratifs<tspan fill-opacity="0.7"> 3 000</tspan></text><text x="933" y="50.492957746478886" dy="0.35em" text-anchor="end">Réserve financière<tspan fill-opacity="0.7"> 3 000</tspan></text><text x="177.5" y="417.18110762445224" dy="0.35em" text-anchor="start">Dédié Salaire<tspan fill-opacity="0.7"> 66 000</tspan></text><text x="334" y="376.6645256065965" dy="0.35em" text-anchor="start">Super Brut<tspan fill-opacity="0.7"> 57 000</tspan></text><text x="490.5" y="205.1563298686869" dy="0.35em" text-anchor="start">Cotisations Patronales<tspan fill-opacity="0.7"> 15 000</tspan></text><text x="490.5" y="440.9506067166216" dy="0.35em" text-anchor="start">Salaire Brut<tspan fill-opacity="0.7"> 42 000</tspan></text><text x="620" y="305.23521833939515" dy="0.35em" text-anchor="end">Cotisations Salariale<tspan fill-opacity="0.7"> 9 000</tspan></text><text x="933" y="76.26760563380284" dy="0.35em" text-anchor="end">Accident du travail<tspan fill-opacity="0.7"> 1 000</tspan></text><text x="933" y="102.04225352112675" dy="0.35em" text-anchor="end">Assurance maladie<tspan fill-opacity="0.7"> 3 000</tspan></text><text x="933" y="129.78873239436618" dy="0.35em" text-anchor="end">Allocations famille<tspan fill-opacity="0.7"> 1 500</tspan></text><text x="933" y="151.61971830985914" dy="0.35em" text-anchor="end">Assurance chômage<tspan fill-opacity="0.7"> 1 500</tspan></text><text x="933" y="214.85915492957741" dy="0.35em" text-anchor="end">Cotisation retraite<tspan fill-opacity="0.7"> 12 000</tspan></text><text x="933" y="287.9577464788731" dy="0.35em" text-anchor="end">CSG/CRDS<tspan fill-opacity="0.7"> 4 000</tspan></text><text x="620" y="481.59748085817347" dy="0.35em" text-anchor="end">Net avant impôts<tspan fill-opacity="0.7"> 33 000</tspan></text><text x="933" y="325.56338028169" dy="0.35em" text-anchor="end">État (impôts sur les revenus)<tspan fill-opacity="0.7"> 3 000</tspan></text><text x="776.5" y="498.50068545957816" dy="0.35em" text-anchor="end">Sur mon compte en banque<tspan fill-opacity="0.7"> 30 000</tspan></text><text x="933" y="394.71830985915483" dy="0.35em" text-anchor="end">Loyer<tspan fill-opacity="0.7"> 12 000</tspan></text><text x="933" y="487.5352112676055" dy="0.35em" text-anchor="end">Dépenses courantes<tspan fill-opacity="0.7"> 9 000</tspan></text><text x="933" y="540.9154929577463" dy="0.35em" text-anchor="end">Vacances<tspan fill-opacity="0.7"> 2 000</tspan></text><text x="933" y="566.6901408450702" dy="0.35em" text-anchor="end">Factures<tspan fill-opacity="0.7"> 2 000</tspan></text><text x="933" y="588.5211267605632" dy="0.35em" text-anchor="end">Équipements<tspan fill-opacity="0.7"> 1 000</tspan></text><text x="933" y="606.4084507042253" dy="0.35em" text-anchor="end">Dons et cotisations<tspan fill-opacity="0.7"> 1 000</tspan></text><text x="933" y="667.6760563380282" dy="0.35em" text-anchor="end">Épargne<tspan fill-opacity="0.7"> 12 000</tspan></text><text x="334" y="648.5644866767348" dy="0.35em" text-anchor="start">Abondement<tspan fill-opacity="0.7"> 9 000</tspan></text></g></svg>